<?xml version="1.0" standalone="no"?>
<!DOCTYPE svg PUBLIC "-//W3C//DTD SVG 20010904//EN"
 "http://www.w3.org/TR/2001/REC-SVG-20010904/DTD/svg10.dtd">
<svg version="1.0" xmlns="http://www.w3.org/2000/svg"
 width="5491.000000pt" height="4500.000000pt" viewBox="0 0 5491.000000 4500.000000"
 preserveAspectRatio="xMidYMid meet">

<g transform="translate(0.000000,4500.000000) scale(0.100000,-0.100000)"
fill="#000000" stroke="none">
<path d="M18600 38066 c0 -2 7 -7 16 -10 8 -3 12 -2 9 4 -6 10 -25 14 -25 6z"/>
<path d="M18830 37944 c492 -268 987 -589 1356 -880 725 -570 1182 -1166 1358
-1769 109 -378 120 -790 29 -1194 -106 -480 -340 -981 -738 -1586 -229 -347
-462 -663 -964 -1303 -436 -556 -654 -839 -824 -1072 -803 -1094 -1177 -1893
-1267 -2709 -15 -132 -15 -447 0 -571 18 -152 85 -540 154 -885 270 -1350 736
-2984 1280 -4494 53 -146 94 -267 91 -269 -7 -8 -329 154 -468 236 -213 125
-407 266 -619 452 -72 63 -72 63 47 -85 135 -167 464 -490 650 -639 285 -226
762 -526 1070 -671 425 -200 1079 -406 1590 -499 637 -116 887 -155 1345 -211
286 -34 1006 -107 1570 -160 1355 -126 2117 -229 2815 -381 559 -122 1111
-298 1513 -480 l72 -33 0 67 c1 37 3 92 5 122 3 30 12 222 20 425 8 204 17
404 20 445 2 41 7 156 11 255 3 99 7 194 9 210 2 17 4 64 4 106 l1 75 108 82
c790 596 1136 1484 946 2427 -141 696 -567 1348 -1144 1751 -917 640 -2020
592 -2984 -129 -410 -308 -662 -582 -991 -1082 -148 -224 -203 -315 -465 -765
-202 -349 -304 -515 -423 -695 -341 -511 -676 -858 -1019 -1053 -304 -173
-603 -252 -959 -252 -297 0 -571 48 -929 162 -52 17 -96 31 -98 33 -1 1 49 80
112 174 291 434 530 856 1051 1856 609 1167 1000 1801 1448 2350 814 995 1765
1553 2957 1734 328 50 758 70 1065 50 1164 -76 2301 -542 3182 -1305 278 -241
598 -600 786 -882 341 -513 527 -997 614 -1597 25 -174 25 -638 -1 -825 -54
-408 -148 -731 -335 -1162 -197 -452 -479 -880 -838 -1273 -224 -245 -356
-360 -632 -555 -90 -63 -218 -154 -285 -201 l-121 -86 0 -139 c1 -141 13 -545
20 -664 2 -36 7 -148 10 -250 3 -102 7 -228 10 -280 2 -52 7 -167 10 -255 3
-88 8 -226 11 -307 4 -82 3 -148 0 -148 -4 0 -365 125 -804 279 -438 153 -864
299 -947 325 -1259 385 -2507 559 -4595 641 -229 9 -371 15 -470 20 -52 3
-165 7 -250 10 -85 3 -180 8 -210 10 -30 2 -116 7 -190 10 -74 3 -160 8 -190
10 -30 2 -98 7 -150 10 -178 11 -315 22 -545 46 -1016 103 -1677 306 -2151
659 -125 93 -330 298 -413 413 -35 48 -66 86 -68 83 -2 -2 20 -57 49 -123 263
-581 720 -973 1403 -1202 l110 -37 80 -117 c700 -1016 1641 -1634 2785 -1831
306 -52 417 -60 835 -60 406 0 522 7 850 55 893 129 1825 439 2817 935 l226
113 184 -55 c442 -133 854 -282 1676 -608 161 -64 295 -116 298 -116 3 0 3 80
0 178 -3 97 -8 449 -11 782 -3 333 -8 738 -11 901 l-7 295 149 115 c155 120
364 303 364 319 0 5 87 86 194 179 1036 907 1875 1873 2451 2821 132 217 215
370 342 630 521 1062 786 1804 868 2425 20 149 27 427 14 560 -45 466 -243
874 -581 1201 -178 173 -386 263 -784 343 -237 48 -562 88 -854 106 -52 3
-121 8 -153 10 -133 11 -895 25 -1057 21 -96 -3 -314 -8 -485 -12 -170 -3
-332 -7 -360 -9 -27 -2 -138 -6 -245 -10 -107 -3 -222 -8 -255 -10 -33 -3
-114 -7 -180 -10 -66 -3 -156 -8 -200 -10 -44 -3 -127 -7 -185 -10 -99 -5
-138 -7 -337 -20 -46 -3 -118 -7 -160 -10 -43 -2 -114 -7 -158 -10 -44 -3
-219 -14 -390 -25 -170 -11 -330 -22 -355 -25 -25 -2 -90 -7 -145 -10 -55 -3
-120 -8 -145 -10 -25 -3 -85 -7 -135 -10 -49 -3 -115 -8 -145 -10 -52 -4 -98
-8 -272 -20 -176 -13 -207 -15 -273 -20 -38 -3 -232 -16 -430 -30 -198 -14
-391 -27 -430 -30 -433 -31 -1027 -64 -1460 -81 -238 -10 -952 -6 -1090 5 -72
6 -403 8 -835 5 -933 -6 -1219 -6 -1294 1 -213 20 -284 29 -393 50 -237 48
-386 118 -510 240 -131 129 -181 255 -190 480 -18 450 213 1073 782 2115 296
541 477 854 1000 1725 490 818 619 1043 784 1375 378 761 464 1275 295 1762
-146 420 -480 811 -1069 1253 -455 342 -959 649 -1795 1098 -359 192 -1592
807 -1619 807 -3 0 82 -48 189 -106z m10190 -14285 c76 -36 150 -106 185 -176
62 -124 27 -277 -88 -378 -85 -75 -127 -85 -392 -100 -131 -7 -349 -20 -515
-30 -47 -3 -164 -9 -260 -15 -96 -6 -211 -12 -255 -15 -44 -2 -125 -7 -180
-10 -55 -3 -129 -8 -165 -10 -36 -2 -117 -7 -180 -10 -63 -3 -135 -8 -160 -10
-25 -2 -108 -7 -185 -10 -77 -4 -153 -8 -170 -10 -16 -2 -95 -6 -175 -10 -80
-4 -152 -9 -160 -10 -8 -2 -89 -6 -180 -10 -91 -4 -168 -9 -172 -11 -3 -2 -58
-4 -120 -5 -141 0 -203 19 -276 89 -80 76 -97 118 -97 242 0 95 3 110 27 156
35 67 112 135 185 163 59 23 143 33 373 45 63 4 149 9 190 11 41 3 156 10 255
15 99 6 214 12 255 15 70 4 123 7 355 20 50 3 124 8 165 10 41 2 118 7 170 10
171 10 274 16 350 20 41 3 158 9 260 15 102 6 210 12 240 15 30 2 123 7 205
11 83 4 152 9 155 11 3 3 73 3 155 1 135 -3 155 -6 205 -29z m432 -1087 c128
-63 191 -165 190 -308 0 -86 -22 -143 -82 -208 -86 -93 -168 -121 -380 -131
-74 -3 -157 -8 -185 -10 -27 -2 -97 -7 -155 -10 -58 -3 -136 -8 -175 -10 -38
-3 -149 -9 -245 -15 -96 -6 -211 -13 -255 -15 -175 -12 -224 -15 -320 -20 -55
-3 -167 -10 -250 -15 -152 -10 -230 -15 -410 -25 -55 -3 -125 -8 -155 -10 -30
-3 -104 -7 -165 -10 -60 -3 -135 -8 -165 -10 -30 -3 -102 -7 -160 -10 -58 -3
-134 -7 -170 -10 -36 -3 -108 -7 -160 -10 -52 -3 -124 -8 -160 -10 -36 -3
-112 -7 -170 -10 -58 -3 -130 -8 -160 -10 -30 -2 -107 -7 -170 -10 -63 -3
-135 -8 -160 -10 -25 -2 -97 -7 -160 -10 -63 -4 -173 -10 -245 -16 -71 -5
-165 -9 -207 -9 -142 0 -263 59 -335 163 -43 64 -56 115 -51 207 4 84 27 141
81 199 77 81 152 106 347 116 121 6 528 30 680 40 41 2 118 7 170 10 52 3 124
7 160 10 36 2 117 7 180 10 63 4 131 8 150 10 19 2 96 7 170 10 74 4 146 8
160 10 14 2 84 6 155 10 72 3 146 8 165 10 19 2 94 6 165 10 72 3 150 7 175
10 25 2 95 7 155 10 61 3 135 7 165 10 30 2 105 7 165 10 61 3 135 7 165 10
30 2 105 7 165 10 61 3 137 8 170 10 83 6 210 14 340 20 61 3 130 8 155 10 25
2 99 7 165 11 66 4 165 10 220 14 55 4 161 6 235 6 132 -1 137 -2 202 -34z
m-868 -1151 c119 -58 177 -151 179 -286 2 -121 -44 -209 -146 -279 -94 -65
-151 -78 -392 -91 -55 -3 -140 -8 -190 -10 -162 -9 -269 -16 -325 -20 -30 -2
-111 -7 -180 -10 -69 -3 -150 -8 -180 -10 -30 -2 -102 -7 -160 -10 -58 -3
-139 -7 -180 -10 -41 -3 -115 -7 -165 -10 -49 -3 -126 -8 -170 -10 -44 -3
-161 -10 -260 -15 -99 -6 -214 -12 -255 -15 -41 -2 -118 -7 -170 -10 -52 -3
-129 -8 -170 -10 -41 -2 -115 -7 -165 -9 -49 -3 -135 -8 -191 -12 -156 -9
-252 21 -352 111 -70 63 -117 158 -116 235 2 110 85 235 194 290 66 33 86 37
215 45 55 3 137 8 183 10 45 3 119 7 165 10 45 2 127 7 182 10 55 3 134 8 175
10 190 12 242 15 335 20 55 3 136 8 180 10 44 3 123 7 175 10 52 3 124 7 160
10 70 5 151 9 445 25 105 6 258 15 340 20 83 5 202 12 265 16 63 3 167 10 230
14 200 14 268 9 344 -29z"/>
<path d="M23975 36012 c17 -10 82 -48 145 -84 339 -192 658 -435 906 -689 320
-329 509 -673 564 -1024 16 -100 13 -323 -6 -435 -35 -212 -142 -465 -289
-685 -119 -179 -222 -296 -493 -560 -1203 -1171 -1841 -1848 -2421 -2570 -462
-575 -779 -1066 -925 -1435 -126 -320 -133 -531 -22 -704 105 -165 354 -281
706 -331 143 -20 484 -37 600 -31 52 3 154 8 225 11 522 23 1221 126 2300 339
l369 73 -219 6 c-121 3 -501 4 -845 2 -348 -2 -669 0 -725 5 -356 34 -536 111
-601 257 -23 52 -23 180 0 258 79 269 296 581 812 1170 1149 1312 1627 1951
1962 2621 228 456 329 815 339 1209 9 342 -49 609 -197 900 -112 221 -252 408
-465 620 -364 364 -892 706 -1574 1020 -166 76 -200 89 -146 57z"/>
<path d="M34608 27105 c358 -372 507 -754 537 -1385 6 -114 6 -115 38 -144 18
-16 88 -79 156 -140 202 -181 386 -391 513 -586 315 -481 333 -937 55 -1362
-276 -424 -807 -803 -1708 -1220 l-137 -63 -120 -160 c-180 -240 -455 -564
-702 -828 -50 -54 -90 -100 -88 -102 8 -8 534 182 818 295 1180 472 2158 1023
2805 1583 144 124 382 367 477 487 570 720 580 1410 31 2072 -415 500 -1141
969 -2228 1438 -154 67 -488 190 -514 190 -3 0 27 -34 67 -75z"/>
<path d="M29345 16280 c-66 -5 -126 -7 -132 -5 -7 2 -13 1 -13 -4 0 -4 -35
-11 -77 -15 -43 -3 -114 -13 -158 -22 -144 -28 -391 -99 -415 -119 -8 -7 -44
-27 -80 -45 -68 -34 -143 -100 -154 -137 -4 -11 -12 -26 -19 -31 -17 -15 -10
-102 9 -102 9 0 14 -11 14 -32 1 -41 65 -112 136 -148 27 -14 64 -35 83 -48
19 -13 66 -35 105 -50 39 -14 73 -29 74 -34 2 -4 14 -8 27 -8 13 0 27 -4 30
-10 3 -5 17 -10 31 -10 14 0 38 -6 53 -14 82 -43 587 -136 662 -122 23 4 28 3
14 -2 -31 -14 85 -22 415 -28 232 -5 335 -3 480 10 182 16 407 51 505 79 28 8
79 22 115 33 36 10 67 21 70 25 3 3 23 12 45 19 72 23 176 87 218 135 27 30
57 102 57 136 0 78 -57 151 -187 240 -40 27 -77 49 -82 49 -6 0 -26 9 -46 20
-20 11 -40 20 -46 20 -6 0 -25 6 -42 14 -96 42 -279 95 -432 125 -182 36 -206
40 -305 51 -52 6 -131 16 -175 21 -107 14 -630 20 -780 9z"/>
<path d="M11860 12779 c-637 -61 -1078 -342 -1339 -854 -153 -299 -237 -630
-288 -1140 -14 -136 -16 -349 -19 -1430 -1 -698 2 -1344 7 -1435 36 -673 167
-1163 407 -1521 259 -386 637 -600 1182 -670 140 -18 499 -16 650 5 748 100
1202 516 1395 1276 72 281 96 498 102 913 l6 337 -494 -2 -494 -3 -1 -200 c-2
-284 -11 -474 -29 -611 -54 -410 -171 -654 -385 -801 -208 -142 -576 -159
-827 -36 -240 117 -400 373 -476 763 -51 262 -52 281 -52 1950 0 1419 2 1568
18 1705 44 383 117 576 276 736 70 70 102 94 171 127 148 71 308 99 510 89
242 -12 393 -69 521 -196 205 -205 263 -454 273 -1181 l1 -105 493 -3 492 -2
0 147 c0 323 -53 707 -134 974 -242 799 -806 1185 -1721 1178 -88 -1 -198 -5
-245 -10z"/>
<path d="M31390 12780 c-676 -64 -1114 -354 -1380 -913 -154 -325 -239 -724
-270 -1267 -13 -229 -13 -2462 0 -2694 47 -847 239 -1395 614 -1753 309 -296
710 -433 1266 -435 308 -1 506 27 731 102 237 79 420 192 586 363 372 382 543
974 543 1880 l0 197 -494 0 -493 0 -6 -342 c-7 -437 -29 -609 -103 -838 -76
-230 -192 -379 -366 -470 -124 -65 -207 -83 -383 -83 -121 0 -165 4 -230 22
-332 88 -537 348 -630 797 -50 243 -48 182 -53 1849 -4 1629 -1 1759 39 1995
29 170 54 252 114 376 118 239 304 366 591 405 121 16 335 6 441 -20 249 -62
411 -219 497 -483 54 -168 86 -455 86 -785 l0 -193 495 0 495 0 0 73 c0 115
-19 401 -35 536 -125 1023 -596 1557 -1475 1671 -115 15 -463 21 -580 10z"/>
<path d="M34100 9250 l0 -3470 495 0 495 0 2 1967 3 1967 90 68 c109 83 254
159 361 190 60 17 106 22 190 23 108 0 113 -1 180 -35 58 -30 74 -44 101 -89
17 -29 38 -74 44 -100 10 -36 14 -467 16 -2018 l3 -1973 495 0 495 0 -2 2188
-3 2187 -27 97 c-70 254 -227 436 -443 514 -100 36 -213 47 -358 35 -390 -33
-649 -157 -1027 -491 l-115 -102 -3 1256 -2 1256 -495 0 -495 0 0 -3470z"/>
<path d="M19380 12459 c-291 -34 -518 -157 -652 -353 -117 -170 -195 -441
-214 -742 -4 -60 -8 -116 -10 -124 -1 -8 -3 -124 -3 -257 l-1 -243 -250 0
-250 0 0 -370 0 -370 248 -2 247 -3 3 -2107 2 -2108 495 0 495 0 0 2110 0
2110 590 -2 590 -3 0 -2091 c0 -1151 3 -2099 6 -2108 6 -14 55 -16 495 -16
l489 0 2 2108 3 2107 478 3 477 2 0 370 0 370 -481 0 -482 0 6 293 c8 395 31
493 135 600 102 104 248 119 580 61 l32 -6 0 370 0 369 -152 19 c-117 15 -217
19 -428 19 -248 -1 -285 -3 -379 -23 -195 -43 -335 -111 -445 -217 -238 -229
-331 -597 -331 -1313 l0 -172 -593 0 -594 0 5 313 c4 338 10 384 64 494 33 67
103 132 169 156 89 34 283 30 477 -9 l27 -6 0 370 0 370 -62 7 c-220 26 -316
32 -503 32 -115 1 -244 -3 -285 -8z"/>
<path d="M41450 11605 l0 -865 -245 0 -245 0 0 -370 0 -370 245 0 244 0 4
-1652 c2 -1527 4 -1661 20 -1756 89 -516 339 -779 817 -857 177 -29 641 -18
858 21 l32 6 0 400 0 400 -27 -6 c-183 -36 -378 -40 -467 -11 -114 37 -185
117 -222 253 -18 64 -19 139 -22 1635 l-2 1567 370 0 370 0 0 370 0 370 -370
0 -370 0 0 865 0 865 -495 0 -495 0 0 -865z"/>
<path d="M15765 10799 c-671 -64 -1060 -415 -1208 -1089 -61 -276 -61 -271
-63 -1395 -3 -1091 -1 -1162 45 -1416 119 -660 456 -1036 1031 -1148 277 -55
612 -49 875 14 609 145 933 602 1004 1415 13 153 14 1986 1 2145 -77 934 -474
1395 -1270 1474 -109 11 -299 11 -415 0z m283 -809 c150 -17 263 -94 329 -224
36 -72 69 -213 82 -353 14 -158 15 -2141 1 -2303 -34 -377 -155 -547 -416
-580 -156 -20 -295 20 -385 109 -97 97 -147 238 -169 473 -16 177 -12 2211 5
2348 26 210 73 330 166 421 73 72 144 101 294 118 6 0 47 -3 93 -9z"/>
<path d="M23790 10799 c-479 -46 -824 -279 -1025 -694 -94 -194 -170 -462
-205 -725 -6 -47 -13 -96 -15 -110 -9 -60 -27 -278 -35 -425 -8 -157 -5 -1042
4 -1120 3 -22 7 -87 11 -145 26 -455 126 -903 259 -1169 196 -390 485 -604
916 -678 128 -22 444 -22 595 1 678 101 1049 521 1150 1304 16 121 36 460 28
475 -3 4 -223 7 -489 7 -372 -1 -486 -4 -489 -13 -2 -7 -6 -99 -9 -205 -12
-367 -56 -538 -172 -657 -122 -126 -355 -159 -517 -73 -147 79 -237 263 -283
582 -12 85 -17 226 -21 609 l-5 497 997 0 997 0 -6 208 c-14 492 -23 632 -57
877 -120 890 -486 1347 -1154 1445 -101 15 -364 20 -475 9z m340 -826 c166
-56 267 -223 321 -528 17 -96 22 -176 26 -402 l6 -283 -487 0 c-267 0 -489 1
-493 3 -11 3 -12 348 -1 487 16 224 63 424 125 530 41 69 120 147 179 176 91
45 222 51 324 17z"/>
<path d="M27000 10800 c-339 -36 -596 -153 -799 -366 -364 -381 -508 -1050
-487 -2274 3 -212 8 -398 10 -415 3 -16 7 -82 11 -145 7 -147 30 -352 56 -505
112 -664 355 -1065 763 -1256 168 -79 359 -118 596 -123 802 -17 1275 322
1454 1043 30 118 44 202 61 351 11 101 14 158 19 360 l1 45 -492 2 -493 3 0
-128 c-1 -134 -4 -186 -21 -344 -36 -342 -182 -511 -452 -522 -129 -6 -244 39
-320 124 -88 99 -158 299 -188 540 -6 54 -13 303 -16 583 l-5 487 990 0 991 0
6 21 c7 20 0 409 -10 569 -12 203 -17 265 -31 390 -105 941 -459 1427 -1123
1541 -133 22 -394 32 -521 19z m270 -811 c263 -42 394 -302 418 -834 4 -82 6
-205 4 -272 l-3 -123 -495 0 -495 0 2 183 c6 516 64 773 207 929 60 65 130
103 212 117 76 12 77 12 150 0z"/>
<path d="M39017 10799 c-557 -46 -981 -344 -1179 -828 -73 -178 -116 -381
-133 -623 l-7 -98 496 0 496 0 0 70 c0 276 70 502 190 613 91 85 144 102 310
102 131 0 137 -1 202 -32 88 -41 148 -98 191 -181 78 -150 97 -274 97 -648 l0
-281 -187 -73 c-714 -278 -1052 -468 -1328 -745 -134 -134 -218 -252 -295
-410 -94 -195 -139 -367 -161 -615 -35 -417 82 -774 343 -1046 188 -195 395
-287 648 -286 400 1 647 183 911 672 l73 135 32 -180 c18 -99 47 -267 65 -372
l34 -193 491 0 491 0 -28 121 c-31 134 -63 350 -81 539 -7 84 -13 613 -18
1595 -6 1259 -9 1482 -22 1551 -70 368 -182 598 -398 815 -240 243 -526 367
-914 399 -142 11 -175 11 -319 -1z m636 -3951 c-55 -81 -157 -191 -214 -233
-93 -68 -156 -89 -269 -88 -322 1 -494 233 -477 643 6 145 26 221 93 350 108
209 276 355 754 652 l135 84 3 -685 2 -685 -27 -38z"/>
</g>
</svg>
